<?xml version="1.0" standalone="no"?><!-- Generator: Gravit.io --><svg xmlns="http://www.w3.org/2000/svg" xmlns:xlink="http://www.w3.org/1999/xlink" style="isolation:isolate" id="svg" width="700" height="250"><rect width="700" height="250" style="fill:rgb(255,255,255)"/><g><g style="mix-blend-mode:normal;" opacity="0.8"><g><path d="M 249.18723242090294 179.08282012365345 L 231.3406924991113 179.08282012365345 L 231.3406924991113 91.7337843303489 Q 231.3406924991113 69.32685775728385 243.39659978670466 56.79417001302704 Q 255.45250707429796 44.26148226877035 275.3874718805546 44.26148226877035 Q 296.6514343405617 44.26148226877035 308.32762801279773 56.414391596534415 Q 320.0038216850338 68.56730092429859 320.0038216850338 87.36633254068369 Q 320.0038216850338 99.13946345195512 315.7320435122645 107.8743670312856 Q 311.46026533949527 116.60927061061608 304.2457066477071 121.35650081677392 Q 297.031147955919 126.10373102293175 288.8673052257377 128.38240152188752 Q 280.7034624955564 130.66107202084333 271.7801925346605 130.66107202084333 L 257.5409319587629 130.66107202084333 L 257.5409319587629 113.95082169516763 L 273.86861741912554 113.95082169516763 Q 286.58902353359406 113.95082169516763 293.8985106292215 106.26030876119194 Q 301.20799772484895 98.56979582721618 301.20799772484895 86.98655412419106 Q 301.20799772484895 75.59320162941219 294.46808105225745 68.28246711192907 Q 287.7281643796659 60.971732594445996 275.197615072876 60.971732594445996 Q 263.0467793814433 60.971732594445996 256.1170059011731 69.23191315316063 Q 249.18723242090294 77.49209371187533 249.18723242090294 90.97422749736364 L 249.18723242090294 179.08282012365345 Z M 374.6625973693566 86.03710808295943 Q 406.9382546747245 87.36633254068369 406.9382546747245 112.81148644568975 Q 406.9382546747245 144.52298422282428 365.35961379310345 144.52298422282428 L 357.5754846782795 144.52298422282428 L 357.5754846782795 129.90151518785808 L 366.6886114468539 129.90151518785808 Q 379.40901756132246 129.90151518785808 384.345294560967 126.0087864188086 Q 389.2815715606115 122.11605764975917 389.2815715606115 113.00137565393607 Q 389.2815715606115 107.11481019830035 384.91486498400286 104.17152747048249 Q 380.54815840739434 101.22824474266463 373.7133133309634 101.22824474266463 Q 360.23347998578026 101.22824474266463 352.5442792747957 110.7227051549803 Q 344.85507856381093 120.21716556729604 344.85507856381093 133.50941014453798 Q 344.85507856381093 147.56121155476524 353.1138496978315 156.29611513409571 Q 361.37262083185226 165.03101871342625 374.6625973693566 165.03101871342625 Q 386.6235762531106 165.03101871342625 394.2178485602559 159.14445325779042 L 405.60925702097416 170.3479165443229 Q 392.50913729114836 180.98171220611658 374.6625973693566 180.98171220611658 Q 353.0189212939923 180.98171220611658 340.1086583718451 168.25913525361347 Q 327.19839544969784 155.53655830111046 327.19839544969784 135.40830222700117 Q 327.19839544969784 113.00137565393607 339.9188015641664 99.13946345195512 Q 352.639207678635 85.27755124997418 374.6625973693566 86.03710808295943 Z M 480.2029975115536 159.14445325779042 L 491.5944059722716 170.3479165443229 Q 478.4942862424458 180.98171220611658 461.5970303590474 180.98171220611658 Q 440.52292470671887 180.98171220611658 427.8025185922503 167.40463381650517 Q 415.0821124777817 153.82755542689364 415.0821124777817 133.50941014453798 Q 415.0821124777817 113.571043278675 428.46701741912557 99.80407568081728 Q 441.8519223604693 86.03710808295943 461.5970303590474 86.03710808295943 Q 478.4942862424458 86.03710808295943 491.5944059722716 96.67090374475305 L 480.39285431923213 108.06425623953191 Q 472.4188683967295 101.98780157564988 461.5970303590474 101.98780157564988 Q 448.4969106292215 101.98780157564988 440.8077099182368 110.62776055085715 Q 433.11850920725215 119.26771952606441 433.11850920725215 133.50941014453798 Q 433.11850920725215 147.75110076301155 440.8077099182368 156.39105973821887 Q 448.4969106292215 165.03101871342625 461.5970303590474 165.03101871342625 Q 472.6087252044082 165.03101871342625 480.2029975115536 159.14445325779042 Z M 524.4196487735514 179.08282012365345 L 507.71224969783157 179.08282012365345 L 507.71224969783157 103.88669365811296 L 492.14399146818346 103.88669365811296 L 499.73826377532885 87.93600016542263 L 524.4196487735514 87.93600016542263 L 524.4196487735514 179.08282012365345 M 506.952822467117 68.94707934079122 Q 504.4846839672947 65.71896280060383 504.4846839672947 61.92117863567756 Q 504.4846839672947 58.12339447075129 506.952822467117 54.990222534687064 Q 509.42096096693933 51.85705059862289 514.5470947742624 51.85705059862289 Q 519.6732285815856 51.85705059862289 522.1413670814079 54.990222534687064 Q 524.60950558123 58.12339447075129 524.60950558123 61.92117863567756 Q 524.60950558123 65.71896280060383 522.1413670814079 68.852134736668 Q 519.6732285815856 71.98530667273224 514.5470947742624 71.98530667273224 Q 509.42096096693933 71.98530667273224 506.952822467117 68.94707934079122 Z M 541.8664901528618 143.0038705568537 L 541.8664901528618 46.160374351233486 L 558.9536028439389 46.160374351233486 L 558.9536028439389 143.0038705568537 Q 558.9536028439389 149.83988205372106 560.5673857092074 154.1123892392631 Q 562.1811685744758 158.38489642480516 565.5985911126912 160.18884390314514 Q 569.0160136509066 161.99279138148512 572.2435793814434 162.56245900622406 Q 575.4711451119801 163.132126630963 580.787135726982 163.132126630963 L 580.787135726982 179.08282012365345 Q 559.5231732669749 179.08282012365345 550.6948317099184 170.91758416906197 Q 541.8664901528618 162.75234821447037 541.8664901528618 143.0038705568537 Z M 582.286005261287 87.93600016542263 L 598.9934043370068 87.93600016542263 L 598.9934043370068 135.5981914352475 Q 598.9934043370068 150.97921730319894 603.7398245289727 157.05567196708097 Q 608.4862447209385 163.132126630963 621.2066508354071 163.132126630963 L 641.1416156416639 163.132126630963 L 641.1416156416639 87.93600016542263 L 657.8490147173836 87.93600016542263 L 657.8490147173836 174.52547912574192 Q 657.8490147173836 198.26163015653123 645.4133938144331 210.31959488017213 Q 632.9777729114825 222.37755960381315 606.3978198364736 222.37755960381315 L 592.7281296836119 222.37755960381315 L 592.7281296836119 206.4268661111227 L 604.6891085673659 206.4268661111227 Q 639.4329043725561 206.4268661111227 641.1416156416639 179.08282012365345 L 625.1936437966584 179.08282012365345 Q 600.3224019907573 179.08282012365345 591.3042036260222 170.3479165443229 Q 582.286005261287 161.6130129649925 582.286005261287 134.83863460226223 L 582.286005261287 87.93600016542263 Z" style="stroke:none;fill:#0A94FD;stroke-miterlimit:10;"/></g></g><g shape="[GCompoundPath]"><g style="mix-blend-mode:normal;" opacity="0.8"><g><path d="M 63 25 C 38 25 19 44 19 69 L 19 181 C 19 185 20 189 23 193 L 23 205 C 23 211 28 217 35 217 L 51 217 C 57 217 63 211 63 205 L 63 201 L 107 201 L 107 176 C 107 172 107 168 109 165 L 115 151 L 119 142 C 120 140 121 138 122 137 L 47 137 C 42 137 39 134 39 129 L 39 77 C 39 72 42 69 47 69 L 143 69 C 147 69 151 72 151 77 L 151 125 L 171 125 L 171 69 C 171 44 151 25 127 25 L 63 25 Z M 67 41 L 127 41 C 129 41 131 42 131 45 L 131 53 C 131 55 129 57 127 57 L 67 57 C 64 57 63 55 63 53 L 63 45 C 63 42 64 41 67 41 Z M 145 133 C 137 133 130 137 127 145 L 123 153 L 116 168 C 115 170 115 173 115 176 L 115 209 L 115 213 L 115 217 C 115 221 118 225 123 225 L 135 225 C 139 225 143 221 143 217 L 143 213 L 191 213 L 191 217 C 191 221 194 225 199 225 L 211 225 C 215 225 219 221 219 217 L 219 213 L 219 209 L 219 176 C 219 173 218 171 217 168 L 207 145 C 203 137 196 133 188 133 L 145 133 Z M 145 141 L 189 141 C 193 141 198 143 200 148 L 205 159 C 205 160 206 161 206 162 L 206 169 C 206 171 204 173 202 173 L 132 173 C 130 173 128 171 128 169 L 128 162 C 128 161 128 160 129 159 L 134 148 C 136 143 140 141 145 141 Z M 53 153 C 60 153 67 159 67 167 C 67 174 60 181 53 181 C 45 181 39 174 39 167 C 39 159 45 153 53 153 Z M 139 181 C 143 181 147 184 147 189 C 147 193 143 197 139 197 C 134 197 131 193 131 189 C 131 184 134 181 139 181 Z M 195 181 C 199 181 203 184 203 189 C 203 193 199 197 195 197 C 190 197 187 193 187 189 C 187 184 190 181 195 181 Z" style="stroke:none;fill:#0A94FD;stroke-miterlimit:10;fill-rule:evenodd;"/></g></g></g></g></svg>