<?xml version="1.0" standalone="no"?><!-- Generator: Gravit.io --><svg xmlns="http://www.w3.org/2000/svg" xmlns:xlink="http://www.w3.org/1999/xlink" style="isolation:isolate" width="700" height="250"><g opacity="0.8"><path d=" M 249.18723242090294 179.08282012365342 L 231.34069249911127 179.08282012365342 L 231.34069249911127 91.73378433034888 Q 231.34069249911127 69.3268577572838 243.3965997867046 56.79417001302707 Q 255.4525070742979 44.26148226877033 275.3874718805546 44.26148226877033 Q 296.6514343405617 44.26148226877033 308.32762801279773 56.41439159653445 Q 320.00382168503376 68.56730092429855 320.00382168503376 87.36633254068366 Q 320.00382168503376 99.13946345195514 315.7320435122645 107.87436703128559 Q 311.4602653394952 116.60927061061605 304.2457066477071 121.35650081677392 Q 297.031147955919 126.10373102293177 288.86730522573765 128.38240152188754 Q 280.7034624955563 130.66107202084328 271.7801925346605 130.66107202084328 L 257.5409319587629 130.66107202084328 L 257.5409319587629 113.95082169516765 L 273.8686174191255 113.95082169516765 Q 286.58902353359406 113.95082169516765 293.8985106292215 106.26030876119192 Q 301.20799772484895 98.5697958272162 301.20799772484895 86.98655412419103 Q 301.20799772484895 75.59320162941218 294.4680810522574 68.28246711192908 Q 287.7281643796658 60.971732594445974 275.1976150728759 60.971732594445974 Q 263.0467793814433 60.971732594445974 256.1170059011731 69.23191315316065 Q 249.18723242090294 77.49209371187531 249.18723242090294 90.97422749736363 L 249.18723242090294 179.08282012365342 Z  M 374.6625973693566 86.03710808295946 Q 406.9382546747245 87.36633254068366 406.9382546747245 112.81148644568977 Q 406.9382546747245 144.52298422282422 365.35961379310345 144.52298422282422 L 357.5754846782794 144.52298422282422 L 357.5754846782794 129.90151518785802 L 366.6886114468539 129.90151518785802 Q 379.40901756132246 129.90151518785802 384.345294560967 126.0087864188086 Q 389.2815715606115 122.11605764975916 389.2815715606115 113.00137565393607 Q 389.2815715606115 107.11481019830033 384.91486498400286 104.17152747048247 Q 380.5481584073942 101.22824474266459 373.7133133309634 101.22824474266459 Q 360.2334799857803 101.22824474266459 352.5442792747956 110.7227051549803 Q 344.8550785638109 120.21716556729601 344.8550785638109 133.509410144538 Q 344.8550785638109 147.56121155476526 353.1138496978315 156.29611513409571 Q 361.37262083185215 165.03101871342616 374.6625973693566 165.03101871342616 Q 386.62357625311057 165.03101871342616 394.217848560256 159.14445325779045 L 405.60925702097404 170.34791654432297 Q 392.50913729114825 180.98171220611655 374.6625973693566 180.98171220611655 Q 353.0189212939922 180.98171220611655 340.108658371845 168.2591352536135 Q 327.19839544969784 155.53655830111046 327.19839544969784 135.40830222700114 Q 327.19839544969784 113.00137565393607 339.9188015641664 99.13946345195514 Q 352.63920767863493 85.27755124997421 374.6625973693566 86.03710808295946 Z  M 480.2029975115535 159.14445325779045 L 491.5944059722716 170.34791654432297 Q 478.4942862424458 180.98171220611655 461.59703035904727 180.98171220611655 Q 440.5229247067188 180.98171220611655 427.8025185922503 167.40463381650508 Q 415.0821124777817 153.8275554268936 415.0821124777817 133.509410144538 Q 415.0821124777817 113.57104327867502 428.4670174191255 99.80407568081723 Q 441.8519223604693 86.03710808295946 461.59703035904727 86.03710808295946 Q 478.4942862424458 86.03710808295946 491.5944059722716 96.67090374475305 L 480.3928543192322 108.0642562395319 Q 472.4188683967295 101.98780157564985 461.59703035904727 101.98780157564985 Q 448.4969106292215 101.98780157564985 440.8077099182368 110.62776055085715 Q 433.11850920725203 119.26771952606445 433.11850920725203 133.509410144538 Q 433.11850920725203 147.75110076301158 440.8077099182368 156.39105973821887 Q 448.4969106292215 165.03101871342616 461.59703035904727 165.03101871342616 Q 472.60872520440813 165.03101871342616 480.2029975115535 159.14445325779045 Z  M 524.4196487735514 179.08282012365342 L 507.7122496978315 179.08282012365342 L 507.7122496978315 103.886693658113 L 492.14399146818346 103.886693658113 L 499.73826377532885 87.9360001654226 L 524.4196487735514 87.9360001654226 L 524.4196487735514 179.08282012365342 Z  M 506.95282246711696 68.94707934079118 Q 504.4846839672947 65.71896280060383 504.4846839672947 61.92117863567755 Q 504.4846839672947 58.12339447075127 506.95282246711696 54.99022253468708 Q 509.4209609669392 51.857050598622905 514.5470947742624 51.857050598622905 Q 519.6732285815856 51.857050598622905 522.1413670814078 54.99022253468708 Q 524.60950558123 58.12339447075127 524.60950558123 61.92117863567755 Q 524.60950558123 65.71896280060383 522.1413670814078 68.85213473666802 Q 519.6732285815856 71.98530667273221 514.5470947742624 71.98530667273221 Q 509.4209609669392 71.98530667273221 506.95282246711696 68.94707934079118 Z  M 541.8664901528617 143.0038705568537 L 541.8664901528617 46.16037435123348 L 558.9536028439388 46.16037435123348 L 558.9536028439388 143.0038705568537 Q 558.9536028439388 149.83988205372106 560.5673857092073 154.1123892392631 Q 562.1811685744758 158.38489642480516 565.5985911126911 160.18884390314514 Q 569.0160136509065 161.99279138148515 572.2435793814434 162.5624590062241 Q 575.4711451119801 163.13212663096303 580.7871357269819 163.13212663096303 L 580.7871357269819 179.08282012365342 Q 559.5231732669748 179.08282012365342 550.6948317099183 170.9175841690619 Q 541.8664901528617 162.7523482144704 541.8664901528617 143.0038705568537 Z  M 582.286005261287 87.9360001654226 L 598.9934043370067 87.9360001654226 L 598.9934043370067 135.5981914352475 Q 598.9934043370067 150.9792173031989 603.7398245289727 157.05567196708097 Q 608.4862447209385 163.13212663096303 621.2066508354071 163.13212663096303 L 641.1416156416637 163.13212663096303 L 641.1416156416637 87.9360001654226 L 657.8490147173836 87.9360001654226 L 657.8490147173836 174.52547912574187 Q 657.8490147173836 198.26163015653114 645.413393814433 210.3195948801721 Q 632.9777729114825 222.37755960381304 606.3978198364737 222.37755960381304 L 592.7281296836119 222.37755960381304 L 592.7281296836119 206.42686611112265 L 604.6891085673658 206.42686611112265 Q 639.4329043725561 206.42686611112265 641.1416156416637 179.08282012365342 L 625.1936437966585 179.08282012365342 Q 600.3224019907573 179.08282012365342 591.3042036260222 170.34791654432297 Q 582.286005261287 161.61301296499252 582.286005261287 134.8386346022622 L 582.286005261287 87.9360001654226 Z " fill-rule="evenodd" fill="rgb(10,148,253)" stroke-width="0" stroke="rgba(0,0,0,0)"/></g><g opacity="0.8"><path d=" M 63 25 C 38.6 25 19 44.6 19 69 L 19 181 C 19 185.557096 20.51735656 189.668676 23 193 L 23 205 C 23 211.8 28.2 217 35 217 L 51 217 C 57.8 217 63 211.8 63 205 L 63 201 L 107 201 L 107 176.25 C 107 172.65 107.8 168.575 109 165.375 L 115.375 151 L 119.375 142.25 C 120.175 140.65 121.05 138.95 122.25 137.75 L 47 137.75 C 42.6 137.75 39 134.15 39 129.75 L 39 77 C 39 72.6 42.6 69 47 69 L 143 69 C 147.4 69 151 72.6 151 77 L 151 125 L 171 125 L 171 69 C 171 44.6 151.4 25 127 25 L 63 25 Z  M 67 41 L 127 41 C 129.4 41 131 42.6 131 45 L 131 53 C 131 55.4 129.4 57 127 57 L 67 57 C 64.6 57 63 55.4 63 53 L 63 45 C 63 42.6 64.6 41 67 41 Z  M 145.375 133 C 137.375 133 130.6 137.4 127 145 L 123 153.75 L 116.625 168.25 C 115.825 170.65 115 173.45 115 176.25 L 115 209 L 115 213 L 115 217 C 115 221.8 118.2 225 123 225 L 135 225 C 139.8 225 143 221.8 143 217 L 143 213 L 191 213 L 191 217 C 191 221.8 194.2 225 199 225 L 211 225 C 215.8 225 219 221.8 219 217 L 219 213 L 219 209 L 219 176.25 C 219 173.45 218.575 171.05 217.375 168.25 L 207 145 C 203.4 137.8 196.625 133 188.625 133 L 145.375 133 Z  M 145.75 141 L 189 141 C 193.8 141 198.25 143.85 200.25 148.25 L 205.375 159.375 C 205.775 160.575 206.25 161.425 206.25 162.625 L 206.25 169 C 206.25 171.4 204.65 173 202.25 173 L 132.625 173 C 130.225 173 128.625 171.4 128.625 169 L 128.625 162.625 C 128.625 161.425 128.975 160.175 129.375 159.375 L 134.625 148.25 C 136.625 143.85 140.95 141 145.75 141 Z  M 53 153 C 60.6 153 67 159.4 67 167 C 67 174.6 60.6 181 53 181 C 45.4 181 39 174.6 39 167 C 39 159.4 45.4 153 53 153 Z  M 139 181 C 143.4 181 147 184.6 147 189 C 147 193.4 143.4 197 139 197 C 134.6 197 131 193.4 131 189 C 131 184.6 134.6 181 139 181 Z  M 195 181 C 199.4 181 203 184.6 203 189 C 203 193.4 199.4 197 195 197 C 190.6 197 187 193.4 187 189 C 187 184.6 190.6 181 195 181 Z " fill-rule="evenodd" fill="rgb(10,148,253)" stroke-width="1.9999999994723638" stroke="rgba(0,0,0,0)" stroke-linecap="butt"/></g></svg>