<?xml version="1.0" standalone="no"?><!-- Generator: Gravit.io --><svg xmlns="http://www.w3.org/2000/svg" xmlns:xlink="http://www.w3.org/1999/xlink" style="isolation:isolate" width="443.6653821542837" height="224.44904414714338"><g transform="translate(-11.303714468538885,0)"><rect width="443.6653821542837" height="224.44904414714338" style="fill:rgb(255,255,255)"/><g opacity="0.8"><path d=" M 41.49094688944184 178.87563416802797 L 23.644406967650156 178.87563416802797 L 23.644406967650156 91.52659837472343 Q 23.644406967650156 69.11967180165836 35.70031425524347 56.58698405740162 Q 47.75622154283679 44.05429631314488 67.69118634909346 44.05429631314488 Q 88.95514880910058 44.05429631314488 100.63134248133662 56.207205640909 Q 112.30753615357266 68.3601149686731 112.30753615357266 87.15914658505821 Q 112.30753615357266 98.93227749632969 108.03575798080338 107.66718107566014 Q 103.7639798080341 116.4020846549906 96.54942111624597 121.14931486114847 Q 89.33486242445784 125.89654506730632 81.17101969427654 128.1752155662621 Q 73.00717696409524 130.45388606521783 64.08390700319939 130.45388606521783 L 49.844646427301775 130.45388606521783 L 49.844646427301775 113.7436357395422 L 66.17233188766437 113.7436357395422 Q 78.89273800213292 113.7436357395422 86.20222509776036 106.05312280556647 Q 93.51171219338781 98.36260987159075 93.51171219338781 86.77936816856558 Q 93.51171219338781 75.38601567378673 86.77179552079627 68.07528115630363 Q 80.03187884820473 60.764546638820526 67.50132954141483 60.764546638820526 Q 55.350493849982186 60.764546638820526 48.420720369712015 69.0247271975352 Q 41.49094688944184 77.28490775624986 41.49094688944184 90.76704154173818 L 41.49094688944184 178.87563416802797 Z  M 166.96631183789546 85.82992212733402 Q 199.24196914326336 87.15914658505821 199.24196914326336 112.60430049006432 Q 199.24196914326336 144.31579826719877 157.66332826164233 144.31579826719877 L 149.8791991468183 144.31579826719877 L 149.8791991468183 129.69432923223258 L 158.9923259153928 129.69432923223258 Q 171.71273202986131 129.69432923223258 176.64900902950583 125.80160046318315 Q 181.58528602915035 121.90887169413371 181.58528602915035 112.79418969831062 Q 181.58528602915035 106.90762424267488 177.21857945254175 103.96434151485703 Q 172.85187287593314 101.02105878703914 166.0170277995023 101.02105878703914 Q 152.5371944543192 101.02105878703914 144.84799374333448 110.51551919935486 Q 137.15879303234976 120.00997961167056 137.15879303234976 133.30222418891256 Q 137.15879303234976 147.35402559913982 145.4175641663704 156.08892917847027 Q 153.67633530039103 164.82383275780072 166.96631183789546 164.82383275780072 Q 178.92729072164946 164.82383275780072 186.52156302879487 158.937267302165 L 197.91297148951296 170.14073058869752 Q 184.81285175968713 180.7745262504911 166.96631183789546 180.7745262504911 Q 145.32263576253106 180.7745262504911 132.4123728403839 168.05194929798805 Q 119.50210991823673 155.329372345485 119.50210991823673 135.2011162713757 Q 119.50210991823673 112.79418969831062 132.22251603270527 98.93227749632969 Q 144.94292214717382 85.07036529434876 166.96631183789546 85.82992212733402 Z  M 272.5067119800924 158.937267302165 L 283.8981204408105 170.14073058869752 Q 270.7980007109847 180.7745262504911 253.90074482758618 180.7745262504911 Q 232.8266391752577 180.7745262504911 220.10623306078918 167.19744786087963 Q 207.38582694632063 153.62036947126816 207.38582694632063 133.30222418891256 Q 207.38582694632063 113.36385732304957 220.7707318876644 99.59688972519179 Q 234.15563682900816 85.82992212733402 253.90074482758618 85.82992212733402 Q 270.7980007109847 85.82992212733402 283.8981204408105 96.4637177891276 L 272.69656878777107 107.85707028390645 Q 264.72258286526835 101.7806156200244 253.90074482758618 101.7806156200244 Q 240.8006250977604 101.7806156200244 233.11142438677567 110.4205745952317 Q 225.42222367579095 119.060533570439 225.42222367579095 133.30222418891256 Q 225.42222367579095 147.54391480738613 233.11142438677567 156.18387378259342 Q 240.8006250977604 164.82383275780072 253.90074482758618 164.82383275780072 Q 264.912439672947 164.82383275780072 272.5067119800924 158.937267302165 Z  M 316.72336324209033 178.87563416802797 L 300.0159641663704 178.87563416802797 L 300.0159641663704 103.67950770248756 L 284.44770593672234 103.67950770248756 L 292.04197824386773 87.72881420979715 L 316.72336324209033 87.72881420979715 L 316.72336324209033 178.87563416802797 Z  M 299.25653693565584 68.73989338516573 Q 296.7883984358336 65.51177684497839 296.7883984358336 61.7139926800521 Q 296.7883984358336 57.916208515125824 299.25653693565584 54.78303657906163 Q 301.7246754354781 51.64986464299746 306.85080924280123 51.64986464299746 Q 311.9769430501244 51.64986464299746 314.4450815499467 54.78303657906163 Q 316.91322004976894 57.916208515125824 316.91322004976894 61.7139926800521 Q 316.91322004976894 65.51177684497839 314.4450815499467 68.64494878104257 Q 311.9769430501244 71.77812071710676 306.85080924280123 71.77812071710676 Q 301.7246754354781 71.77812071710676 299.25653693565584 68.73989338516573 Z  M 334.1702046214006 142.79668460122826 L 334.1702046214006 45.95318839560803 L 351.25731731247777 45.95318839560803 L 351.25731731247777 142.79668460122826 Q 351.25731731247777 149.6326960980956 352.8711001777462 153.90520328363766 Q 354.48488304301463 158.17771046917971 357.90230558123 159.9816579475197 Q 361.3197281194454 161.7856054258597 364.5472938499822 162.35527305059864 Q 367.774859580519 162.92494067533758 373.09085019552083 162.92494067533758 L 373.09085019552083 178.87563416802797 Q 351.8268877355137 178.87563416802797 342.99854617845716 170.71039821343646 Q 334.1702046214006 162.54516225884495 334.1702046214006 142.79668460122826 Z  M 374.58971972982584 87.72881420979715 L 391.29711880554567 87.72881420979715 L 391.29711880554567 135.39100547962204 Q 391.29711880554567 150.77203134757346 396.0435389975116 156.84848601145552 Q 400.78995918947743 162.92494067533758 413.510365303946 162.92494067533758 L 433.44533011020263 162.92494067533758 L 433.44533011020263 87.72881420979715 L 450.15272918592257 87.72881420979715 L 450.15272918592257 174.31829317011642 Q 450.15272918592257 198.0544442009057 437.71710828297194 210.11240892454666 Q 425.28148738002136 222.1703736481876 398.7015343050125 222.1703736481876 L 385.03184415215077 222.1703736481876 L 385.03184415215077 206.2196801554972 L 396.99282303590473 206.2196801554972 Q 431.736618841095 206.2196801554972 433.44533011020263 178.87563416802797 L 417.49735826519736 178.87563416802797 Q 392.62611645929616 178.87563416802797 383.607918094561 170.14073058869752 Q 374.58971972982584 161.40582700936707 374.58971972982584 134.63144864663676 L 374.58971972982584 87.72881420979715 Z " fill-rule="evenodd" fill="rgb(10,148,253)" stroke-width="0" stroke="rgba(0,0,0,0)"/></g></g></svg>