<?xml version="1.0" standalone="no"?><!-- Generator: Gravit.io --><svg xmlns="http://www.w3.org/2000/svg" xmlns:xlink="http://www.w3.org/1999/xlink" style="isolation:isolate" id="svg" width="470" height="250"><rect width="470" height="250" style="fill:rgb(255,255,255)"/><g><g style="mix-blend-mode:normal;" opacity="0.8"><g><path d="M 41.49094688944183 178.875634168028 L 23.644406967650184 178.875634168028 L 23.644406967650184 91.52659837472345 Q 23.644406967650184 69.1196718016584 35.70031425524354 56.586984057401594 Q 47.75622154283684 44.0542963131449 67.69118634909347 44.0542963131449 Q 88.95514880910059 44.0542963131449 100.63134248133662 56.20720564090897 Q 112.3075361535727 68.36011496867314 112.3075361535727 87.15914658505824 Q 112.3075361535727 98.93227749632968 108.0357579808034 107.66718107566015 Q 103.76397980803415 116.40208465499063 96.54942111624598 121.14931486114847 Q 89.33486242445787 125.8965450673063 81.1710196942766 128.17521556626207 Q 73.00717696409527 130.4538860652179 64.08390700319939 130.4538860652179 L 49.84464642730177 130.4538860652179 L 49.84464642730177 113.74363573954219 L 66.17233188766443 113.74363573954219 Q 78.89273800213294 113.74363573954219 86.20222509776039 106.05312280556649 Q 93.51171219338784 98.36260987159073 93.51171219338784 86.77936816856561 Q 93.51171219338784 75.38601567378674 86.77179552079633 68.07528115630362 Q 80.03187884820477 60.76454663882055 67.50132954141486 60.76454663882055 Q 55.35049384998217 60.76454663882055 48.420720369712 69.02472719753519 Q 41.49094688944183 77.28490775624988 41.49094688944183 90.7670415417382 L 41.49094688944183 178.875634168028 Z M 166.9663118378955 85.82992212733399 Q 199.24196914326336 87.15914658505824 199.24196914326336 112.6043004900643 Q 199.24196914326336 144.31579826719883 157.66332826164233 144.31579826719883 L 149.8791991468184 144.31579826719883 L 149.8791991468184 129.69432923223263 L 158.99232591539277 129.69432923223263 Q 171.71273202986134 129.69432923223263 176.64900902950586 125.80160046318315 Q 181.58528602915038 121.90887169413372 181.58528602915038 112.79418969831062 Q 181.58528602915038 106.9076242426749 177.21857945254175 103.96434151485704 Q 172.85187287593322 101.02105878703918 166.01702779950227 101.02105878703918 Q 152.53719445431915 101.02105878703918 144.8479937433346 110.51551919935486 Q 137.15879303234982 120.00997961167059 137.15879303234982 133.30222418891253 Q 137.15879303234982 147.3540255991398 145.41756416637037 156.08892917847027 Q 153.67633530039114 164.8238327578008 166.9663118378955 164.8238327578008 Q 178.9272907216495 164.8238327578008 186.5215630287948 158.93726730216497 L 197.91297148951304 170.14073058869747 Q 184.81285175968725 180.77452625049114 166.9663118378955 180.77452625049114 Q 145.3226357625312 180.77452625049114 132.41237284038397 168.05194929798802 Q 119.50210991823673 155.329372345485 119.50210991823673 135.20111627137572 Q 119.50210991823673 112.79418969831062 132.2225160327053 98.93227749632968 Q 144.94292214717387 85.07036529434873 166.9663118378955 85.82992212733399 Z M 272.50671198009246 158.93726730216497 L 283.8981204408105 170.14073058869747 Q 270.7980007109847 180.77452625049114 253.90074482758627 180.77452625049114 Q 232.82663917525775 180.77452625049114 220.10623306078918 167.19744786087972 Q 207.3858269463206 153.6203694712682 207.3858269463206 133.30222418891253 Q 207.3858269463206 113.36385732304956 220.77073188766445 99.59688972519183 Q 234.1556368290082 85.82992212733399 253.90074482758627 85.82992212733399 Q 270.7980007109847 85.82992212733399 283.8981204408105 96.4637177891276 L 272.696568787771 107.85707028390647 Q 264.7225828652684 101.78061562002443 253.90074482758627 101.78061562002443 Q 240.80062509776036 101.78061562002443 233.1114243867757 110.4205745952317 Q 225.42222367579103 119.06053357043896 225.42222367579103 133.30222418891253 Q 225.42222367579103 147.5439148073861 233.1114243867757 156.18387378259342 Q 240.80062509776036 164.8238327578008 253.90074482758627 164.8238327578008 Q 264.9124396729471 164.8238327578008 272.50671198009246 158.93726730216497 Z M 316.72336324209033 178.875634168028 L 300.01596416637045 178.875634168028 L 300.01596416637045 103.67950770248751 L 284.44770593672234 103.67950770248751 L 292.04197824386773 87.72881420979718 L 316.72336324209033 87.72881420979718 L 316.72336324209033 178.875634168028 M 299.2565369356559 68.73989338516577 Q 296.7883984358336 65.51177684497839 296.7883984358336 61.713992680052115 Q 296.7883984358336 57.916208515125845 299.2565369356559 54.783036579061616 Q 301.7246754354782 51.64986464299744 306.8508092428013 51.64986464299744 Q 311.9769430501245 51.64986464299744 314.4450815499468 54.783036579061616 Q 316.9132200497689 57.916208515125845 316.9132200497689 61.713992680052115 Q 316.9132200497689 65.51177684497839 314.4450815499468 68.64494878104256 Q 311.9769430501245 71.77812071710679 306.8508092428013 71.77812071710679 Q 301.7246754354782 71.77812071710679 299.2565369356559 68.73989338516577 Z M 334.1702046214007 142.79668460122826 L 334.1702046214007 45.95318839560804 L 351.2573173124778 45.95318839560804 L 351.2573173124778 142.79668460122826 Q 351.2573173124778 149.6326960980956 352.8711001777463 153.90520328363766 Q 354.4848830430147 158.17771046917971 357.9023055812301 159.9816579475197 Q 361.31972811944553 161.78560542585967 364.5472938499823 162.3552730505986 Q 367.77485958051903 162.92494067533755 373.0908501955209 162.92494067533755 L 373.0908501955209 178.875634168028 Q 351.8268877355138 178.875634168028 342.9985461784573 170.71039821343652 Q 334.1702046214007 162.54516225884493 334.1702046214007 142.79668460122826 Z M 374.58971972982584 87.72881420979718 L 391.2971188055457 87.72881420979718 L 391.2971188055457 135.39100547962204 Q 391.2971188055457 150.7720313475735 396.0435389975116 156.84848601145552 Q 400.78995918947743 162.92494067533755 413.510365303946 162.92494067533755 L 433.44533011020275 162.92494067533755 L 433.44533011020275 87.72881420979718 L 450.1527291859225 87.72881420979718 L 450.1527291859225 174.31829317011648 Q 450.1527291859225 198.05444420090578 437.717108282972 210.11240892454668 Q 425.28148738002136 222.1703736481877 398.70153430501244 222.1703736481877 L 385.03184415215077 222.1703736481877 L 385.03184415215077 206.21968015549726 L 396.9928230359048 206.21968015549726 Q 431.736618841095 206.21968015549726 433.44533011020275 178.875634168028 L 417.4973582651973 178.875634168028 Q 392.62611645929616 178.875634168028 383.60791809456106 170.14073058869747 Q 374.58971972982584 161.40582700936704 374.58971972982584 134.63144864663678 L 374.58971972982584 87.72881420979718 Z" style="stroke:none;fill:#0A94FD;stroke-miterlimit:10;"/></g></g></g></svg>