<?xml version="1.0" standalone="no"?><!-- Generator: Gravit.io --><svg xmlns="http://www.w3.org/2000/svg" xmlns:xlink="http://www.w3.org/1999/xlink" style="isolation:isolate" id="svg" width="600" height="600"><rect width="600" height="600" style="fill:rgb(255,255,255)"/><g><g shape="[GCompoundPath]"><g style="mix-blend-mode:normal;" opacity="0.8"><g><path d="M 132 0 C 58 0 0 58 0 132 L 0 468 C 0 481 4 494 12 504 L 12 540 C 12 560 27 576 48 576 L 96 576 C 116 576 132 560 132 540 L 132 528 L 264 528 L 264 453 C 264 442 266 430 270 421 L 289 378 L 301 351 C 303 346 306 341 309 338 L 84 338 C 70 338 60 327 60 314 L 60 156 C 60 142 70 132 84 132 L 372 132 C 385 132 396 142 396 156 L 396 300 L 456 300 L 456 132 C 456 58 397 0 324 0 L 132 0 Z M 144 48 L 324 48 C 331 48 336 52 336 60 L 336 84 C 336 91 331 96 324 96 L 144 96 C 136 96 132 91 132 84 L 132 60 C 132 52 136 48 144 48 Z M 379 324 C 355 324 334 337 324 360 L 312 386 L 292 429 C 290 436 288 445 288 453 L 288 552 L 288 564 L 288 576 C 288 590 297 600 312 600 L 348 600 C 362 600 372 590 372 576 L 372 564 L 516 564 L 516 576 C 516 590 525 600 540 600 L 576 600 C 590 600 600 590 600 576 L 600 564 L 600 552 L 600 453 C 600 445 598 438 595 429 L 564 360 C 553 338 532 324 508 324 L 379 324 Z M 380 348 L 510 348 C 524 348 537 356 543 369 L 559 403 C 560 406 561 409 561 412 L 561 432 C 561 439 556 444 549 444 L 340 444 C 333 444 328 439 328 432 L 328 412 C 328 409 329 405 331 403 L 346 369 C 352 356 365 348 380 348 Z M 102 384 C 124 384 144 403 144 426 C 144 448 124 468 102 468 C 79 468 60 448 60 426 C 60 403 79 384 102 384 Z M 360 468 C 373 468 384 478 384 492 C 384 505 373 516 360 516 C 346 516 336 505 336 492 C 336 478 346 468 360 468 Z M 528 468 C 541 468 552 478 552 492 C 552 505 541 516 528 516 C 514 516 504 505 504 492 C 504 478 514 468 528 468 Z" style="stroke:none;fill:#0A94FD;stroke-miterlimit:10;fill-rule:evenodd;"/></g></g></g></g></svg>