<?xml version="1.0" standalone="no"?><!-- Generator: Gravit.io --><svg xmlns="http://www.w3.org/2000/svg" xmlns:xlink="http://www.w3.org/1999/xlink" style="isolation:isolate" width="600" height="600"><g opacity="0.8"><path d=" M 132 0 C 58.800000000000004 0 0 58.800000000000004 0 132 L 0 468 C 0 481.671288 4.552069680000001 494.006028 12 504 L 12 540 C 12 560.4000000000001 27.599999999999998 576 48 576 L 96 576 C 116.39999999999999 576 132 560.4000000000001 132 540 L 132 528 L 264 528 L 264 453.75 C 264 442.95000000000005 266.4 430.72499999999997 270 421.125 L 289.125 378 L 301.125 351.75 C 303.525 346.95000000000005 306.15 341.85 309.75 338.25 L 84 338.25 C 70.80000000000001 338.25 60 327.45000000000005 60 314.25 L 60 156 C 60 142.8 70.80000000000001 132 84 132 L 372 132 C 385.20000000000005 132 396 142.8 396 156 L 396 300 L 456 300 L 456 132 C 456 58.800000000000004 397.20000000000005 0 324 0 L 132 0 Z  M 144 48 L 324 48 C 331.20000000000005 48 336 52.800000000000004 336 60 L 336 84 C 336 91.19999999999999 331.20000000000005 96 324 96 L 144 96 C 136.8 96 132 91.19999999999999 132 84 L 132 60 C 132 52.800000000000004 136.8 48 144 48 Z  M 379.125 324 C 355.125 324 334.79999999999995 337.20000000000005 324 360 L 312 386.25 L 292.875 429.75 C 290.475 436.95000000000005 288 445.34999999999997 288 453.75 L 288 552 L 288 564 L 288 576 C 288 590.4000000000001 297.6 600 312 600 L 348 600 C 362.4 600 372 590.4000000000001 372 576 L 372 564 L 516 564 L 516 576 C 516 590.4000000000001 525.5999999999999 600 540 600 L 576 600 C 590.4000000000001 600 600 590.4000000000001 600 576 L 600 564 L 600 552 L 600 453.75 C 600 445.34999999999997 598.7249999999999 438.15000000000003 595.125 429.75 L 564 360 C 553.2 338.4 532.875 324 508.875 324 L 379.125 324 Z  M 380.25 348 L 510 348 C 524.4000000000001 348 537.75 356.54999999999995 543.75 369.75 L 559.125 403.125 C 560.325 406.72499999999997 561.75 409.27500000000003 561.75 412.875 L 561.75 432 C 561.75 439.20000000000005 556.95 444 549.75 444 L 340.875 444 C 333.67499999999995 444 328.875 439.20000000000005 328.875 432 L 328.875 412.875 C 328.875 409.27500000000003 329.92499999999995 405.52500000000003 331.125 403.125 L 346.875 369.75 C 352.875 356.54999999999995 365.85 348 380.25 348 Z  M 102 384 C 124.80000000000001 384 144 403.20000000000005 144 426 C 144 448.79999999999995 124.80000000000001 468 102 468 C 79.19999999999999 468 60 448.79999999999995 60 426 C 60 403.20000000000005 79.19999999999999 384 102 384 Z  M 360 468 C 373.20000000000005 468 384 478.79999999999995 384 492 C 384 505.20000000000005 373.20000000000005 516 360 516 C 346.79999999999995 516 336 505.20000000000005 336 492 C 336 478.79999999999995 346.79999999999995 468 360 468 Z  M 528 468 C 541.2 468 552 478.79999999999995 552 492 C 552 505.20000000000005 541.2 516 528 516 C 514.8 516 504 505.20000000000005 504 492 C 504 478.79999999999995 514.8 468 528 468 Z " fill-rule="evenodd" fill="rgb(10,148,253)" stroke-width="1.9999999994723638" stroke="rgba(0,0,0,0)" stroke-linecap="butt"/></g></svg>